<svg width="128" height="128" viewBox="0 0 128 128" fill="none" xmlns="http://www.w3.org/2000/svg">
<g clip-path="url(#clip0_90_734)">
<path d="M53.1084 74.6121L52.5459 74.8369L54.1288 78.7982L54.691 78.5721C60.4307 76.2772 67.5701 76.2761 73.3097 78.5721L73.8719 78.7971L75.4549 74.8358L74.8924 74.6119C68.1574 71.916 59.8434 71.9171 53.1084 74.6121V74.6121Z" fill="black"/>
<path d="M61.8672 42.6958H66.1324V66.1545H61.8672V42.6958Z" fill="black"/>
<path d="M123.713 0.0437459V39.1794C123.713 39.8667 123.602 40.5494 123.385 41.2017L113.243 71.6265L97.4194 96.3943C96.9292 97.1687 96.1358 97.7008 95.2335 97.8605C93.3299 98.1574 91.5457 96.8549 91.2487 94.9513C91.1346 94.2196 91.2562 93.4702 91.5963 92.8121C95.3057 86.0768 102.126 73.5738 102.126 73.5738C102.206 73.428 102.268 73.2737 102.313 73.1135L104.038 66.7897L110.818 45.4752L106.753 44.1817L99.9572 65.5443L99.9727 65.5491C99.9633 65.5787 99.9404 65.5995 99.9321 65.6291C99.3883 67.6252 97.3296 68.8024 95.3334 68.2589C95.1951 68.2213 95.0589 68.1754 94.9256 68.1221C93.2494 67.4511 92.29 65.6808 92.6429 63.9102L95.9484 47.3804C95.9754 47.2423 95.9887 47.1018 95.9887 46.9611V40.7141C95.9644 31.6196 99.5789 22.8933 106.027 16.4797C106.427 16.0799 106.652 15.5377 106.652 14.972V0.0437459H102.387V14.1024C100.909 15.6627 99.564 17.3429 98.3649 19.1258C86.5868 0.145315 61.6524 -5.69349 42.672 6.08462C37.3797 9.36883 32.9172 13.8308 29.6324 19.1231C28.4339 17.3413 27.0893 15.6619 25.6127 14.1024V0.0437459H21.3475V14.972C21.3475 15.5377 21.5725 16.0799 21.9724 16.4797C28.4206 22.8935 32.0351 31.6204 32.0106 40.7152V46.9611C32.0108 47.1015 32.0249 47.2418 32.0521 47.3796L35.3577 63.9094C35.7117 65.6808 34.752 67.4525 33.075 68.1237C31.1532 68.892 28.9727 67.9571 28.2044 66.0353C28.1513 65.9029 28.106 65.7672 28.0684 65.6296C28.0602 65.5995 28.0372 65.5787 28.0279 65.5496L28.0434 65.5448L21.2476 44.1817L17.1823 45.4752L23.9626 66.7897L25.6876 73.1135C25.7319 73.2737 25.7945 73.428 25.8743 73.5738C25.8743 73.5738 32.6946 86.0762 36.404 92.8121C37.2264 94.3033 36.8182 96.1381 35.3292 97.2564C34.5963 97.805 33.6684 98.0241 32.7676 97.8613C31.865 97.7021 31.0714 97.1698 30.5817 96.3951L14.7578 71.6273L4.61565 41.203C4.39759 40.5507 4.28643 39.8672 4.2867 39.1794V0.0437459H0.0214855V39.1794C0.0209524 40.3255 0.205956 41.4643 0.569298 42.5511L10.7949 73.227C10.8501 73.3936 10.9255 73.553 11.0199 73.701L26.9851 98.6914C28.1199 100.461 29.9382 101.68 32.0063 102.058C32.444 102.138 32.8881 102.178 33.333 102.178C35.0183 102.168 36.6546 101.61 37.9938 100.586C38.0786 100.523 38.1439 100.445 38.2255 100.378C38.379 100.552 38.5209 100.741 38.6771 100.911C39.9063 102.26 41.2429 103.507 42.6736 104.639V112.73C42.6712 116.967 41.9877 121.176 40.6492 125.196C40.2781 126.313 40.8835 127.52 42.0015 127.892C42.2183 127.964 42.4451 128 42.6736 128H85.3257C86.5034 128 87.4585 127.046 87.4585 125.868C87.4585 125.639 87.422 125.412 87.35 125.196C86.0116 121.176 85.3281 116.967 85.3257 112.73V104.641C86.751 103.513 88.0829 102.271 89.3078 100.928C89.473 100.747 89.6189 100.555 89.7801 100.371C89.895 100.466 89.9902 100.576 90.1115 100.667C93.4498 103.171 98.1866 102.496 100.691 99.1574C100.805 99.0062 100.913 98.8508 101.014 98.6914L116.98 73.701C117.074 73.553 117.149 73.3936 117.205 73.227L127.432 42.55C127.794 41.4632 127.978 40.3249 127.978 39.1794V0.0437459H123.713ZM95.3894 24.3597C94.8371 23.6805 94.2613 23.0482 93.6812 22.4268L94.7382 21.3698C95.133 22.0042 95.507 22.655 95.8658 23.3187C95.6931 23.6594 95.5518 24.0142 95.3894 24.3597ZM92.2516 17.8243L90.6268 19.4504C89.0343 18.0477 87.3317 16.7754 85.5352 15.6453L87.8917 13.2891C89.4744 14.6707 90.9333 16.1884 92.2516 17.8243ZM46.3617 13.5111L43.5152 10.6649C45.6024 9.22248 47.8363 8.00449 50.1795 7.03149L52.2588 11.1874C50.2329 11.7997 48.2607 12.5768 46.3617 13.5111ZM56.5182 10.1656L54.264 5.66049C56.7469 4.97539 59.2956 4.5574 61.867 4.41292V9.51518C60.0711 9.61034 58.2845 9.8276 56.5182 10.1656ZM66.1322 4.3828C68.7108 4.52888 71.2665 4.949 73.7563 5.6357L71.484 10.1675C69.7169 9.82974 67.9289 9.61168 66.1322 9.51544V4.3828ZM77.8221 7.03949C80.1701 8.00236 82.4096 9.21128 84.5027 10.6463L81.6371 13.5114C79.7388 12.5771 77.7674 11.7995 75.7423 11.1866L77.8221 7.03949ZM40.1355 13.3168L42.4638 15.6445C40.6663 16.773 38.9636 18.0456 37.3722 19.4499L35.7698 17.8478C36.5783 16.8279 37.4415 15.8525 38.3556 14.9261C38.9269 14.3575 39.5352 13.8425 40.1355 13.3168ZM33.2579 21.3674L34.3183 22.4276C33.7366 23.0519 33.1592 23.6845 32.6101 24.3597C32.4485 24.0158 32.3078 23.6626 32.1358 23.3233C32.4936 22.6611 32.8607 22.0042 33.2579 21.3674ZM82.4733 123.735H45.5259C46.4627 120.142 46.9375 116.444 46.9388 112.73V107.616C47.9859 108.221 49.0642 108.771 50.1689 109.263C58.9755 113.176 69.0278 113.176 77.8344 109.263C78.9375 108.771 80.0141 108.222 81.0599 107.618V112.731C81.0615 116.444 81.5363 120.142 82.4733 123.735ZM86.1491 98.0636C83.3543 101.18 79.9299 103.669 76.1021 105.364C68.3949 108.77 59.6094 108.77 51.9022 105.364C48.0664 103.665 44.6353 101.17 41.8368 98.0447C41.4433 97.6163 41.0872 97.1668 40.719 96.7251C41.3572 94.7399 41.1477 92.5793 40.1395 90.7538C37.0595 85.1589 31.8277 75.5779 30.1512 72.507C34.4932 73.3542 38.7 70.5213 39.5474 66.179C39.7476 65.1527 39.7452 64.0971 39.5397 63.0718L38.0954 55.8476C39.9809 56.0321 41.8786 56.159 43.7841 56.159C47.1089 56.1616 50.4277 55.8777 53.7037 55.3102L52.9706 51.1095C47.7641 51.9937 42.4563 52.1105 37.216 51.4561L36.2758 46.7497V43.0709C41.0901 40.5003 46.9052 39.8771 52.8117 41.3718L53.8615 37.2377C47.6625 35.6649 41.5105 36.1077 36.1662 38.3973C35.9841 35.2149 35.4073 32.0677 34.4489 29.0277C35.5131 27.501 36.6948 26.0597 37.9834 24.7172C38.0981 24.589 38.2271 24.461 38.3582 24.3277C38.4689 24.2184 38.575 24.1078 38.7896 23.9193C41.2117 21.5593 43.9595 19.5584 46.9492 17.9776C49.7448 16.4693 52.7341 15.3524 55.8336 14.658C61.2136 13.4008 66.8115 13.4026 72.1907 14.6633C75.2862 15.359 78.2713 16.4768 81.0626 17.9851C84.0613 19.5731 86.8166 21.5828 89.2443 23.9532C89.5296 24.2198 89.7921 24.4834 90.0878 24.7988C91.3505 26.1156 92.508 27.5296 93.5495 29.0274C92.5909 32.0677 92.014 35.2152 91.8322 38.3978C86.489 36.109 80.3394 35.6678 74.137 37.2382L75.1867 41.3723C81.0933 39.8757 86.9099 40.4987 91.7227 43.0709V46.7497L90.7414 51.6576C86.2096 52.0526 81.6461 51.8682 77.161 51.1087L76.4279 55.3113C79.6657 55.8689 82.9451 56.148 86.2307 56.1454C87.4473 56.1454 88.6608 56.0985 89.8686 56.0228L88.4593 63.0723C87.5916 67.4114 90.4055 71.6321 94.7446 72.4998C95.7685 72.7045 96.8228 72.7072 97.8478 72.5075C96.1713 75.5785 90.9416 85.1595 87.8595 90.7544C86.8524 92.5759 86.6463 94.7338 87.2909 96.7131C86.9169 97.1634 86.5572 97.6176 86.1491 98.0636Z" fill="black"/>
</g>
<defs>
<clipPath id="clip0_90_734">
<rect width="128" height="128" fill="white"/>
</clipPath>
</defs>
</svg>
