<svg width="24" height="16" viewBox="0 0 24 16" fill="none" xmlns="http://www.w3.org/2000/svg">
<path d="M23.6602 8.59766C23.8867 9.09766 24 9.61719 24 10.1562V11C24 11.2969 23.9609 11.582 23.8828 11.8555C23.8047 12.1289 23.6875 12.3828 23.5312 12.6172C23.375 12.8516 23.1875 13.0625 22.9688 13.25C22.75 13.4375 22.5078 13.5938 22.2422 13.7188C22.125 13.9922 21.9727 14.2383 21.7852 14.457C21.5977 14.6758 21.3828 14.8594 21.1406 15.0078C20.8984 15.1562 20.6406 15.2773 20.3672 15.3711C20.0938 15.4648 19.8047 15.5078 19.5 15.5C18.9609 15.5 18.4609 15.3672 18 15.1016C17.5391 14.8359 17.1719 14.4688 16.8984 14H8.60156C8.32812 14.4688 7.96094 14.8359 7.5 15.1016C7.03906 15.3672 6.53906 15.5 6 15.5C5.46094 15.5 4.96094 15.3672 4.5 15.1016C4.03906 14.8359 3.67188 14.4688 3.39844 14H1.5C1.28906 14 1.09375 13.9609 0.914062 13.8828C0.734375 13.8047 0.578125 13.6992 0.445312 13.5664C0.3125 13.4336 0.203125 13.2734 0.117188 13.0859C0.03125 12.8984 -0.0078125 12.7031 1.16415e-10 12.5V9.5C1.16415e-10 8.88281 0.117188 8.30078 0.351562 7.75391C0.585938 7.20703 0.90625 6.73047 1.3125 6.32422C1.71875 5.91797 2.19531 5.59375 2.74219 5.35156C3.28906 5.10938 3.875 4.99219 4.5 5H4.93359L8.77734 1.15625C8.98828 0.945312 9.23047 0.785156 9.50391 0.675781C9.77734 0.566406 10.0664 0.507812 10.3711 0.5H21V2H20.6602L23.6602 8.59766ZM6 14C6.21094 14 6.40625 13.9609 6.58594 13.8828C6.76562 13.8047 6.92188 13.6992 7.05469 13.5664C7.1875 13.4336 7.29687 13.2734 7.38281 13.0859C7.46875 12.8984 7.50781 12.7031 7.5 12.5C7.5 12.2891 7.46094 12.0938 7.38281 11.9141C7.30469 11.7344 7.19922 11.5781 7.06641 11.4453C6.93359 11.3125 6.77344 11.2031 6.58594 11.1172C6.39844 11.0312 6.20312 10.9922 6 11C5.78906 11 5.59375 11.0391 5.41406 11.1172C5.23438 11.1953 5.07812 11.3008 4.94531 11.4336C4.8125 11.5664 4.70312 11.7266 4.61719 11.9141C4.53125 12.1016 4.49219 12.2969 4.5 12.5C4.5 12.7109 4.53906 12.9062 4.61719 13.0859C4.69531 13.2656 4.80078 13.4219 4.93359 13.5547C5.06641 13.6875 5.22656 13.7969 5.41406 13.8828C5.60156 13.9688 5.79687 14.0078 6 14ZM13.5 2H10.3711C10.168 2 9.99219 2.07422 9.84375 2.22266L7.06641 5H13.5V2ZM15 5H20.3789L19.2188 2.43359C19.1562 2.30078 19.0625 2.19531 18.9375 2.11719C18.8125 2.03906 18.6758 2 18.5273 2H15V5ZM19.5 14C19.7109 14 19.9062 13.9609 20.0859 13.8828C20.2656 13.8047 20.4219 13.6992 20.5547 13.5664C20.6875 13.4336 20.7969 13.2734 20.8828 13.0859C20.9688 12.8984 21.0078 12.7031 21 12.5C21 12.2891 20.9609 12.0938 20.8828 11.9141C20.8047 11.7344 20.6992 11.5781 20.5664 11.4453C20.4336 11.3125 20.2734 11.2031 20.0859 11.1172C19.8984 11.0312 19.7031 10.9922 19.5 11C19.2891 11 19.0938 11.0391 18.9141 11.1172C18.7344 11.1953 18.5781 11.3008 18.4453 11.4336C18.3125 11.5664 18.2031 11.7266 18.1172 11.9141C18.0312 12.1016 17.9922 12.2969 18 12.5C18 12.7109 18.0391 12.9062 18.1172 13.0859C18.1953 13.2656 18.3008 13.4219 18.4336 13.5547C18.5664 13.6875 18.7266 13.7969 18.9141 13.8828C19.1016 13.9688 19.2969 14.0078 19.5 14Z" fill="#3E6BD0"/>
</svg>
