<svg width="132" height="141" viewBox="0 0 132 141" fill="none" xmlns="http://www.w3.org/2000/svg">
<path d="M109.476 47.0739L104.533 33.0474" stroke="black" stroke-width="2" stroke-miterlimit="10" stroke-linecap="round" stroke-linejoin="round"/>
<path d="M122.706 46.0876C121.636 39.4821 117.945 32.871 109.11 28.1744" stroke="black" stroke-width="3" stroke-miterlimit="10" stroke-linecap="round" stroke-linejoin="round"/>
<path d="M100.657 22.0509L95.3516 7.00245" stroke="black" stroke-width="3" stroke-miterlimit="10" stroke-linecap="round" stroke-linejoin="round"/>
<path d="M92.6454 16.6528C89.6665 17.7726 86.3723 16.1865 85.288 13.1098L84.1767 9.95747C83.0927 6.88084 84.6286 3.47889 87.6078 2.35914C90.587 1.23939 93.881 2.82577 94.9653 5.9024L96.0762 9.05478C97.1608 12.1311 95.6247 15.5331 92.6454 16.6528Z" stroke="black" stroke-width="3" stroke-miterlimit="10" stroke-linecap="round" stroke-linejoin="round"/>
<path d="M7.19444 74.62C6.88769 74.1462 6.59694 73.6614 6.3222 73.1711C2.57451 66.4774 1.48887 58.4421 2.20907 50.7485C3.01729 42.0935 6.18883 33.444 12.2331 27.3894C13.7029 25.9157 15.3193 24.6238 17.0398 23.5081" stroke="black" stroke-width="3" stroke-miterlimit="10" stroke-linecap="round" stroke-linejoin="round"/>
<path d="M25.5645 19.613C30.123 18.2467 34.9804 17.7674 39.7123 18.0842C49.6217 18.7425 59.0936 22.5577 67.9414 27.2075C74.4125 30.6094 80.6462 34.4769 87.0266 38.0469" stroke="black" stroke-width="3" stroke-miterlimit="10" stroke-linecap="round" stroke-linejoin="round"/>
<path d="M72.6553 126.514C75.08 128.789 76.6644 131.775 76.6644 135.839V137.13C76.6644 138.111 75.8962 138.904 74.9466 138.904H8.50713C7.5602 138.904 6.79199 138.111 6.79199 137.13V135.839C6.79199 123.812 20.6624 121.228 29.1394 118.575C30.0597 118.289 30.6865 117.416 30.6865 116.427V103.144" stroke="black" stroke-width="3" stroke-miterlimit="10" stroke-linecap="round" stroke-linejoin="round"/>
<path d="M52.7695 103.141V116.427C52.7695 117.416 53.3964 118.289 54.314 118.575C57.3361 119.52 61.0411 120.457 64.5594 121.815" stroke="black" stroke-width="3" stroke-miterlimit="10" stroke-linecap="round" stroke-linejoin="round"/>
<path d="M17.6714 67.7252C11.4644 68.1824 6.59375 72.4962 6.59375 77.7492C6.59375 83.308 12.0459 87.8146 18.7677 87.8146C18.8264 87.8146 18.8824 87.8146 18.9411 87.8118" stroke="black" stroke-width="3" stroke-miterlimit="10" stroke-linecap="round" stroke-linejoin="round"/>
<path d="M57.4881 98.9621C52.2827 104.483 45.9295 107.67 41.7262 107.67C34.5515 107.67 21.1088 98.3837 17.8101 84.0542C17.3275 81.9697 17.0635 79.7787 17.0635 77.4927C17.0635 68.6451 18.3366 61.9982 20.4716 57.0551C23.6738 49.6405 28.8187 46.0463 34.5296 44.5808C36.6875 44.4128 38.8694 44.5671 40.9951 45.0629C49.595 47.0627 55.5164 54.5388 57.1651 63.2984C58.8346 72.1931 54.9322 80.7158 55.2603 89.5637C55.383 92.9078 56.1731 96.078 57.4881 98.9621ZM57.4881 98.9621C60.777 106.187 67.365 111.634 75.1087 113.581C94.3406 118.418 111.054 104.563 122.428 89.9879C123.221 88.9742 122.642 87.4619 121.396 87.2636C120.716 87.1534 120.033 87.0322 119.353 86.922C118.062 86.7071 117.531 85.1067 118.411 84.1095C127.512 73.7604 131.681 58.7368 129.374 44.9472C129.171 43.7297 127.814 43.1319 126.838 43.8398C118.649 49.7595 107.613 47.5916 98.5548 43.8398" stroke="black" stroke-width="3" stroke-miterlimit="10" stroke-linecap="round" stroke-linejoin="round"/>
<path d="M36.0752 90.1433C39.8434 91.9911 43.6117 91.9911 47.3802 90.1433" stroke="black" stroke-width="3" stroke-miterlimit="10" stroke-linecap="round" stroke-linejoin="round"/>
<path d="M32.0898 71.7815V74.6686" stroke="black" stroke-width="3" stroke-miterlimit="10" stroke-linecap="round" stroke-linejoin="round"/>
<path d="M28.2881 63.813C30.8226 62.2732 33.3575 62.2732 35.8923 63.813" stroke="black" stroke-width="3" stroke-miterlimit="10" stroke-linecap="round" stroke-linejoin="round"/>
<path d="M21.5918 54.7598C25.4411 42.1304 42.6706 28.7449 62.2648 42.7643" stroke="black" stroke-width="3" stroke-miterlimit="10" stroke-linecap="round" stroke-linejoin="round"/>
<path d="M50.6113 50.4809C58.1321 54.7596 65.2052 65.3894 67.5042 73.2246" stroke="black" stroke-width="3" stroke-miterlimit="10" stroke-linecap="round" stroke-linejoin="round"/>
<path d="M102.359 33.0473C101.219 36.2837 91.5401 63.7447 90.3 67.2623C89.8599 68.5102 88.1794 68.5763 87.6486 67.367C85.1039 61.5548 80.8347 48.6767 87.0271 38.0469C89.1783 34.3538 92.5913 30.9317 97.782 28.1743" stroke="black" stroke-width="3" stroke-miterlimit="10" stroke-linecap="round" stroke-linejoin="round"/>
<path d="M111.54 7.00245L106.234 22.0509" stroke="black" stroke-width="3" stroke-miterlimit="10" stroke-linecap="round" stroke-linejoin="round"/>
<path d="M114.246 16.6528C117.226 17.7726 120.52 16.1865 121.604 13.1098L122.715 9.95747C123.799 6.88084 122.263 3.47889 119.284 2.35914C116.305 1.23939 113.011 2.82577 111.927 5.9024L110.816 9.05478C109.731 12.1311 111.267 15.5331 114.246 16.6528Z" stroke="black" stroke-width="3" stroke-miterlimit="10" stroke-linecap="round" stroke-linejoin="round"/>
<path d="M103.446 21.3036C100.277 21.3036 97.708 23.9566 97.708 27.2291C97.708 30.5018 100.277 33.1545 103.446 33.1545C106.615 33.1545 109.184 30.5018 109.184 27.2291C109.184 23.9566 106.615 21.3036 103.446 21.3036Z" stroke="black" stroke-width="3" stroke-miterlimit="10" stroke-linecap="round" stroke-linejoin="round"/>
</svg>
