<svg width="128" height="128" viewBox="0 0 128 128" fill="none" xmlns="http://www.w3.org/2000/svg">
<g clip-path="url(#clip0_90_646)">
<path d="M108.73 53.6886C108.686 53.6625 108.641 53.6396 108.594 53.6202L107.696 53.1658C105.215 51.8876 102.205 52.256 100.105 54.0952C96.2511 57.2566 90.8599 57.7515 86.4944 55.3448C85.9615 55.1411 85.3646 55.408 85.1609 55.9407C85.0037 56.3517 85.1245 56.8174 85.4617 57.1004C87.5397 58.3285 89.9155 58.961 92.3291 58.9283C92.7835 58.9283 93.2482 58.9283 93.7026 58.8663C95.5292 58.7111 97.3096 58.21 98.9487 57.3895C98.9487 57.3895 99.021 57.3895 99.052 57.3895C100.575 57.1342 102.118 57.7182 103.09 58.9179C103.285 59.1779 103.591 59.331 103.916 59.331C104.139 59.331 104.357 59.2585 104.536 59.1245C104.992 58.7824 105.084 58.1349 104.742 57.6787C103.962 56.6576 102.877 55.9123 101.644 55.5513C103.095 54.3743 105.103 54.1639 106.766 55.0143L107.665 55.4584C108.153 55.7524 108.788 55.5947 109.082 55.106C109.376 54.6173 109.218 53.9827 108.73 53.6886Z" fill="black"/>
<path d="M107.706 38.8733C96.4182 35.7752 87.0516 37.7167 84.4492 43.6444C84.2181 44.1659 84.4533 44.7759 84.9746 45.007C84.9751 45.0073 84.9754 45.0073 84.9759 45.0075C85.1057 45.0656 85.2467 45.0938 85.389 45.0901C85.7948 45.0894 86.1624 44.8508 86.3287 44.4809C88.4974 39.6065 97.0584 38.1194 107.158 40.8664C107.709 41.0174 108.277 40.694 108.428 40.1435C108.58 39.5931 108.256 39.0243 107.706 38.8733Z" fill="black"/>
<path d="M65.5704 55.6905C65.5675 55.6854 65.5644 55.6805 65.5616 55.6753C65.2603 55.1959 64.6293 55.0485 64.1468 55.3448C59.764 57.7647 54.3462 57.2525 50.4945 54.054C48.3958 52.2439 45.407 51.8923 42.9455 53.1658L42.0471 53.6202C41.5207 53.8394 41.2715 54.4441 41.4907 54.9705C41.7099 55.4969 42.3145 55.746 42.841 55.5269C42.8877 55.5075 42.9331 55.4845 42.9765 55.4584L43.875 55.0144C45.5502 54.1456 47.5823 54.3612 49.0384 55.5617C47.8085 55.9172 46.7257 56.6597 45.9507 57.6787C45.6083 58.1349 45.701 58.7822 46.1572 59.1245C46.3359 59.2585 46.5535 59.3311 46.7768 59.3311C47.1019 59.3311 47.4081 59.178 47.603 58.918C48.5693 57.7288 50.097 57.1461 51.6099 57.3896C51.6099 57.3896 51.6718 57.3896 51.7028 57.3896C53.3453 58.2111 55.1293 58.7125 56.9592 58.8663C57.4136 58.8663 57.8783 58.9283 58.3327 58.9283C60.743 58.9624 63.1162 58.3299 65.1898 57.1004C65.6842 56.8162 65.8546 56.1849 65.5704 55.6905Z" fill="black"/>
<path d="M66.1917 43.6455C66.1914 43.6449 66.1914 43.6447 66.1912 43.6442C63.5681 37.7165 54.2222 35.806 42.9348 38.8731C42.3844 39.0241 42.0609 39.5929 42.2119 40.1433C42.363 40.6938 42.9317 41.0173 43.4821 40.8662C53.5819 38.1192 62.143 39.6063 64.3013 44.4807C64.4691 44.8542 64.8419 45.093 65.2514 45.09C65.3934 45.091 65.5338 45.0628 65.6645 45.0073C66.1863 44.777 66.4222 44.1672 66.1917 43.6455Z" fill="black"/>
<path d="M86.9182 89.0211C85.3503 86.3043 82.8747 84.2273 79.9268 83.1554C78.6847 82.7111 77.3087 82.8474 76.1781 83.5271C75.6711 83.8104 75.0535 83.8104 74.5465 83.5271C73.419 82.8396 72.0409 82.6992 70.7978 83.145C67.8499 84.217 65.3743 86.294 63.8064 89.0108C63.6218 89.3304 63.6218 89.7238 63.8064 90.0435C66.2049 94.1557 70.6018 96.6899 75.3623 96.7044C80.1207 96.6922 84.5172 94.1619 86.9182 90.0538C87.1028 89.7342 87.1028 89.3405 86.9182 89.0211ZM69.1282 92.7938C67.8306 91.9434 66.7222 90.835 65.8718 89.5374C67.2004 87.4878 69.1622 85.9284 71.4587 85.0968C72.117 84.8642 72.8451 84.9401 73.4415 85.3034C74.6046 85.9749 76.0374 85.9749 77.2005 85.3034C77.7969 84.9401 78.5249 84.8642 79.1833 85.0968C81.4782 85.9313 83.4393 87.4899 84.7702 89.5374C81.3501 94.7559 74.3469 96.2141 69.1282 92.7938Z" fill="black"/>
<path d="M80.2373 75.3585C79.8506 75.0273 79.2805 75.0273 78.8938 75.3585C76.9229 77.332 73.7256 77.3341 71.7521 75.3632C71.7506 75.3616 71.7491 75.3601 71.7475 75.3585C71.3143 74.9875 70.6624 75.0379 70.2914 75.4711C69.9602 75.8578 69.9602 76.4279 70.2914 76.8146C73.0632 79.5921 77.5618 79.597 80.3393 76.8252C80.3429 76.8216 80.3463 76.8182 80.3499 76.8146C80.7209 76.3814 80.6705 75.7295 80.2373 75.3585Z" fill="black"/>
<path d="M108.388 28.8978L108.388 28.898C123.735 41.0963 128.49 62.9108 119.693 80.7043L108.388 28.8978ZM108.388 28.8978C105.109 26.2973 94.386 18.0836 90.9156 15.4447M108.388 28.8978L90.9156 15.4447M90.9156 15.4447C91.2931 15.0017 91.6605 14.5349 92.0096 14.0874L92.0115 14.0849C93.2072 12.5116 94.3838 10.1655 95.2689 8.19626C96.1437 6.25007 96.7428 4.65142 96.8049 4.48563L96.8072 4.47932L96.8111 4.46908L96.814 4.45855C97.0039 3.77614 96.6043 3.06871 95.9218 2.87915C95.3174 2.71116 94.6803 3.00489 94.4154 3.57341L94.392 3.62361V3.64155C94.3889 3.6508 94.3849 3.6622 94.38 3.67585C94.3633 3.72294 94.3381 3.79187 94.3048 3.88069C94.2382 4.05809 94.1404 4.31221 94.016 4.62473C93.7673 5.24979 93.413 6.10686 92.9913 7.04932C92.1449 8.94085 91.0371 11.1525 89.9726 12.5313L89.972 12.532C83.9768 20.3514 74.8162 25.4894 62.708 27.6703L62.708 27.6703L62.7017 27.6716L39.9103 32.3806L90.9156 15.4447ZM43.1565 116.968C45.8667 112.618 44.9003 107.773 41.9286 102.524C38.9559 97.2736 34.0168 91.6925 28.9095 85.9235C26.9474 83.7135 24.9114 81.4088 22.9577 79.1036L22.9431 79.0865L22.9319 79.067C22.925 79.055 22.9161 79.043 22.905 79.0314L22.8972 79.0232L22.8902 79.0142C20.0762 75.4482 18.1343 71.2739 17.219 66.8243L17.4636 66.774L17.219 66.8243C13.9738 51.0469 24.133 35.6262 39.9101 32.3807L43.1565 116.968ZM43.1565 116.968C42.779 117.573 41.6383 118.782 39.9998 119.807C38.366 120.829 36.2666 121.649 33.9749 121.518L33.9744 121.518C33.2664 121.48 32.6605 122.022 32.6216 122.73L43.1565 116.968ZM35.8277 36.2983C33.503 37.2395 31.3225 38.5051 29.3511 40.058C17.8115 49.1478 15.8245 65.8702 24.9121 77.4107C26.8605 79.7302 28.8815 82.009 30.843 84.2183L30.8434 84.2187L30.9107 84.2948C36.2356 90.318 41.4393 96.2042 44.5177 101.866C47.6132 107.559 48.5903 113.085 45.3259 118.317L45.3211 118.325L45.3156 118.332C42.7797 121.798 38.7992 123.916 34.5074 124.083L34.4977 124.084V124.083H34.4965H34.4952H34.4939H34.4926H34.4914H34.4901H34.4888H34.4876H34.4863H34.485H34.4837H34.4825H34.4812H34.4799H34.4787H34.4774H34.4761H34.4748H34.4736H34.4723H34.471H34.4698H34.4685H34.4672H34.466H34.4647H34.4634H34.4621H34.4609H34.4596H34.4583H34.4571H34.4558H34.4545H34.4532H34.452H34.4507H34.4494H34.4482H34.4469H34.4456H34.4444H34.4431H34.4418H34.4405H34.4393H34.438H34.4367H34.4355H34.4342H34.4329H34.4316H34.4304H34.4291H34.4278H34.4266H34.4253H34.424H34.4228H34.4215H34.4202H34.4189H34.4177H34.4164H34.4151H34.4139H34.4126H34.4113H34.41H34.4088H34.4075H34.4062H34.405H34.4037H34.4024H34.4011H34.3999H34.3986H34.3973H34.3961H34.3948H34.3935H34.3923H34.391H34.3897H34.3884H34.3872H34.3859H34.3846H34.3834H34.3821H34.3808H34.3795H34.3783H34.377H34.3757H34.3745H34.3732H34.3719H34.3707H34.3694H34.3681H34.3668H34.3656H34.3643H34.363H34.3618H34.3605H34.3592H34.3579H34.3567H34.3554H34.3541H34.3529H34.3516H34.3503H34.3491H34.3478H34.3465H34.3452H34.344H34.3427H34.3414H34.3402H34.3389H34.3376H34.3363H34.3351H34.3338H34.3325H34.3313H34.33H34.3287H34.3274H34.3262H34.3249H34.3236H34.3224H34.3211H34.3198H34.3186H34.3173H34.316H34.3147H34.3135H34.3122H34.3109H34.3097H34.3084H34.3071H34.3058H34.3046H34.3033H34.302H34.3008H34.2995H34.2982H34.297H34.2957H34.2944H34.2931H34.2919H34.2906H34.2893H34.2881H34.2868H34.2855H34.2842H34.283H34.2817H34.2804H34.2792H34.2779H34.2766H34.2753H34.2741H34.2728H34.2715H34.2703H34.269H34.2677H34.2665H34.2652H34.2639H34.2626H34.2614H34.2601H34.2588H34.2576H34.2563H34.255H34.2537H34.2525H34.2512H34.2499H34.2487H34.2474H34.2461H34.2449H34.2436H34.2423H34.241H34.2398H34.2385H34.2372H34.236H34.2347H34.2334H34.2321H34.2309H34.2296H34.2283H34.2271H34.2258H34.2245H34.2233H34.222H34.2207H34.2194H34.2182H34.2169H34.2156H34.2144H34.2131H34.2118H34.2105H34.2093H34.208H34.2067H34.2055H34.2042H34.2029H34.2016H34.2004H34.1991H34.1978H34.1966H34.1953H34.194H34.1928H34.1915H34.1902H34.1889H34.1877H34.1864H34.1851H34.1839H34.1826H34.1813H34.18H34.1788H34.1775H34.1762H34.175H34.1737H34.1724H34.1712H34.1699H34.1686H34.1673H34.1661H34.1648H34.1635H34.1623H34.161H34.1597H34.1584H34.1572H34.1559H34.1546H34.1534H34.1521H34.1508H34.1495H34.1483H34.147H34.1457H34.1445H34.1432H34.1419H34.1407H34.1394H34.1381H34.1368H34.1356H34.1343H34.133H34.1318H34.1305H34.1292H34.1279H34.1267H34.1254H34.1241H34.1229H34.1216H34.1203H34.1191H34.1178H34.1165H34.1152H34.114H34.1127H34.1114H34.1102H34.1089H34.1076H34.1063H34.1051H34.1038H34.1025H34.1013H34.1H34.0987H34.0975H34.0962H34.0949H34.0936H34.0924H34.0911H34.0898H34.0886H34.0873H34.086H34.0847H34.0835H34.0822H34.0809H34.0797H34.0784H34.0771H34.0758H34.0746H34.0733H34.072H34.0708H34.0695H34.0682H34.067H34.0657H34.0644H34.0631H34.0619H34.0606H34.0593H34.0581H34.0568H34.0555H34.0542H34.053H34.0517H34.0504H34.0492H34.0479H34.0466H34.0454H34.0441H34.0428H34.0415H34.0403H34.039H34.0377H34.0365H34.0352H34.0339H34.0326H34.0314H34.0301H34.0288H34.0276H34.0263H34.025H34.0238H34.0225H34.0212H34.0199H34.0187H34.0174H34.0161H34.0149H34.0136H34.0123H34.011H34.0098H34.0085H34.0072H34.006H34.0047H34.0034H34.0021H34.0009H33.9996H33.9983H33.9971H33.9958H33.9945H33.9933H33.992H33.9907H33.9894H33.9882H33.9869H33.9856H33.9844H33.9831H33.9818H33.9805H33.9793H33.978H33.9767H33.9755H33.9742H33.9729H33.9717H33.9704H33.9691H33.9678H33.9666H33.9653H33.964H33.9628H33.9615H33.9602H33.9589H33.9577H33.9564H33.9551H33.9539H33.9526H33.9513H33.95H33.9488H33.9475H33.9462H33.945H33.9437H33.9424H33.9412H33.9399H33.9386H33.9373H33.9361H33.9348H33.9335H33.9323H33.931H33.9297H33.9284H33.9272H33.9259H33.9246H33.9234H33.9221H33.9208H33.9196H33.9183H33.917H33.9157H33.9145H33.9132H33.9119H33.9107H33.9094H33.9081H33.9068H33.9056H33.9043H33.903H33.9018H33.9005H33.8992H33.8979H33.8967H33.8954H33.8941H33.8929H33.8916H33.8903H33.8891H33.8878H33.8865H33.8852H33.884H33.8827H33.8814H33.8802H33.8789H33.8776H33.8763H33.8751H33.8738H33.8725H33.8713H33.87H33.8687H33.8675H33.8662H33.8649H33.8636H33.8624H33.8611H33.8598H33.8586H33.8573H33.856H33.8547H33.8535H33.8522H33.8509H33.8497H33.8484H33.8471H33.8334L33.8334 124.083C33.1253 124.044 32.5825 123.438 32.6216 122.73L35.8277 36.2983ZM35.8277 36.2983L35.8277 67.9437L35.8277 67.9443C35.8457 76.495 39.3945 84.6588 45.6348 90.5047L45.6352 90.5051L64.6472 108.247L64.6474 108.247C67.0252 110.459 70.1518 111.689 73.3993 111.691H73.3994H77.2408H77.2411V111.441C80.4507 111.445 83.5413 110.226 85.8848 108.033L97.5624 97.2148V97.5556M35.8277 36.2983L86.0549 108.216L86.0546 108.216L85.8851 108.033L86.0556 108.216L97.5624 97.5556M97.5624 97.5556L97.8124 97.324L105.94 124.918L105.941 125.168C105.94 125.168 105.939 125.168 105.938 125.168C105.521 125.169 105.131 124.968 104.889 124.629C100.109 117.918 97.5468 109.88 97.5624 101.64M97.5624 97.5556V101.64M97.5624 101.64L97.8124 101.641H97.5624V101.64ZM89.184 17.3554C89.4391 17.55 89.7423 17.7811 90.086 18.0431C94.1285 21.125 103.781 28.4838 106.795 30.9097L106.796 30.9106C108.817 32.5191 110.672 34.3265 112.331 36.3056C112.315 36.3738 112.304 36.4434 112.299 36.5136L112.299 36.5213V36.5291V67.9541C112.299 68.6624 112.873 69.2368 113.582 69.2368C114.29 69.2368 114.864 68.6624 114.864 67.9541V39.7109C122.713 51.5896 123.695 66.7624 117.395 79.5752L117.394 79.5774C117.091 80.2096 117.351 80.9679 117.978 81.2805C118.154 81.3772 118.352 81.4263 118.553 81.4226C118.553 81.4226 118.553 81.4226 118.554 81.4226L118.549 81.1726L89.184 17.3554ZM89.184 17.3554C82.8833 23.8682 74.159 28.1403 63.2034 30.1961C63.2027 30.1962 63.2019 30.1964 63.2012 30.1965L40.4243 34.8944L40.4228 34.8947C39.7192 35.0354 39.0225 35.2197 38.3312 35.4244L38.3312 67.9536L38.3312 67.9541M89.184 17.3554L38.3312 67.9541M38.3312 67.9541C38.3474 75.7962 41.6037 83.283 47.3292 88.6421L38.3312 67.9541ZM99.7229 95.1553L99.8935 95.338L100.031 95.2098C100.004 95.1455 99.9723 95.0832 99.9354 95.0237L99.7229 95.1553ZM103.301 88.6422C103.301 88.6423 103.301 88.6424 103.301 88.6425L103.472 88.8249L103.301 88.6422ZM106.675 124.934C106.676 124.934 106.676 124.933 106.677 124.933L106.528 124.732L106.673 124.936C106.674 124.935 106.674 124.935 106.675 124.934Z" fill="black" stroke="black" stroke-width="0.5"/>
<path d="M108.388 28.8978L108.388 28.898C123.735 41.0963 128.49 62.9108 119.693 80.7043L108.388 28.8978ZM108.388 28.8978C105.109 26.2973 94.386 18.0836 90.9156 15.4447M108.388 28.8978L90.9156 15.4447M90.9156 15.4447C91.2931 15.0017 91.6605 14.5349 92.0096 14.0874L92.0115 14.0849C93.2072 12.5116 94.3838 10.1655 95.2689 8.19626C96.1437 6.25007 96.7428 4.65142 96.8049 4.48563L96.8072 4.47932L96.8111 4.46908L96.814 4.45855C97.0039 3.77614 96.6043 3.06871 95.9218 2.87915C95.3174 2.71116 94.6803 3.00489 94.4154 3.57341L94.392 3.62361V3.64155C94.3889 3.6508 94.3849 3.6622 94.38 3.67585C94.3633 3.72294 94.3381 3.79187 94.3048 3.88069C94.2382 4.05809 94.1404 4.31221 94.016 4.62473C93.7673 5.24979 93.413 6.10686 92.9913 7.04932C92.1449 8.94085 91.0371 11.1525 89.9726 12.5313L89.972 12.532C83.9768 20.3514 74.8162 25.4894 62.708 27.6703L62.708 27.6703L62.7017 27.6716L39.9103 32.3806L90.9156 15.4447ZM43.1565 116.968C45.8667 112.618 44.9003 107.773 41.9286 102.524C38.9559 97.2736 34.0168 91.6925 28.9095 85.9235C26.9474 83.7135 24.9114 81.4088 22.9577 79.1036L22.9431 79.0865L22.9319 79.067C22.925 79.055 22.9161 79.043 22.905 79.0314L22.8972 79.0232L22.8902 79.0142C20.0762 75.4482 18.1343 71.2739 17.219 66.8243L17.4636 66.774L17.219 66.8243C13.9738 51.0469 24.133 35.6262 39.9101 32.3807L43.1565 116.968ZM43.1565 116.968C42.779 117.573 41.6383 118.782 39.9998 119.807C38.366 120.829 36.2666 121.649 33.9749 121.518L33.9744 121.518C33.2664 121.48 32.6605 122.022 32.6216 122.73L43.1565 116.968ZM35.8277 36.2983C33.503 37.2395 31.3225 38.5051 29.3511 40.058C17.8115 49.1478 15.8245 65.8702 24.9121 77.4107C26.8605 79.7302 28.8815 82.009 30.843 84.2183L30.8434 84.2187L30.9107 84.2948C36.2356 90.318 41.4393 96.2042 44.5177 101.866C47.6132 107.559 48.5903 113.085 45.3259 118.317L45.3211 118.325L45.3156 118.332C42.7797 121.798 38.7992 123.916 34.5074 124.083L34.4977 124.084V124.083H34.4965H34.4952H34.4939H34.4926H34.4914H34.4901H34.4888H34.4876H34.4863H34.485H34.4837H34.4825H34.4812H34.4799H34.4787H34.4774H34.4761H34.4748H34.4736H34.4723H34.471H34.4698H34.4685H34.4672H34.466H34.4647H34.4634H34.4621H34.4609H34.4596H34.4583H34.4571H34.4558H34.4545H34.4532H34.452H34.4507H34.4494H34.4482H34.4469H34.4456H34.4444H34.4431H34.4418H34.4405H34.4393H34.438H34.4367H34.4355H34.4342H34.4329H34.4316H34.4304H34.4291H34.4278H34.4266H34.4253H34.424H34.4228H34.4215H34.4202H34.4189H34.4177H34.4164H34.4151H34.4139H34.4126H34.4113H34.41H34.4088H34.4075H34.4062H34.405H34.4037H34.4024H34.4011H34.3999H34.3986H34.3973H34.3961H34.3948H34.3935H34.3923H34.391H34.3897H34.3884H34.3872H34.3859H34.3846H34.3834H34.3821H34.3808H34.3795H34.3783H34.377H34.3757H34.3745H34.3732H34.3719H34.3707H34.3694H34.3681H34.3668H34.3656H34.3643H34.363H34.3618H34.3605H34.3592H34.3579H34.3567H34.3554H34.3541H34.3529H34.3516H34.3503H34.3491H34.3478H34.3465H34.3452H34.344H34.3427H34.3414H34.3402H34.3389H34.3376H34.3363H34.3351H34.3338H34.3325H34.3313H34.33H34.3287H34.3274H34.3262H34.3249H34.3236H34.3224H34.3211H34.3198H34.3186H34.3173H34.316H34.3147H34.3135H34.3122H34.3109H34.3097H34.3084H34.3071H34.3058H34.3046H34.3033H34.302H34.3008H34.2995H34.2982H34.297H34.2957H34.2944H34.2931H34.2919H34.2906H34.2893H34.2881H34.2868H34.2855H34.2842H34.283H34.2817H34.2804H34.2792H34.2779H34.2766H34.2753H34.2741H34.2728H34.2715H34.2703H34.269H34.2677H34.2665H34.2652H34.2639H34.2626H34.2614H34.2601H34.2588H34.2576H34.2563H34.255H34.2537H34.2525H34.2512H34.2499H34.2487H34.2474H34.2461H34.2449H34.2436H34.2423H34.241H34.2398H34.2385H34.2372H34.236H34.2347H34.2334H34.2321H34.2309H34.2296H34.2283H34.2271H34.2258H34.2245H34.2233H34.222H34.2207H34.2194H34.2182H34.2169H34.2156H34.2144H34.2131H34.2118H34.2105H34.2093H34.208H34.2067H34.2055H34.2042H34.2029H34.2016H34.2004H34.1991H34.1978H34.1966H34.1953H34.194H34.1928H34.1915H34.1902H34.1889H34.1877H34.1864H34.1851H34.1839H34.1826H34.1813H34.18H34.1788H34.1775H34.1762H34.175H34.1737H34.1724H34.1712H34.1699H34.1686H34.1673H34.1661H34.1648H34.1635H34.1623H34.161H34.1597H34.1584H34.1572H34.1559H34.1546H34.1534H34.1521H34.1508H34.1495H34.1483H34.147H34.1457H34.1445H34.1432H34.1419H34.1407H34.1394H34.1381H34.1368H34.1356H34.1343H34.133H34.1318H34.1305H34.1292H34.1279H34.1267H34.1254H34.1241H34.1229H34.1216H34.1203H34.1191H34.1178H34.1165H34.1152H34.114H34.1127H34.1114H34.1102H34.1089H34.1076H34.1063H34.1051H34.1038H34.1025H34.1013H34.1H34.0987H34.0975H34.0962H34.0949H34.0936H34.0924H34.0911H34.0898H34.0886H34.0873H34.086H34.0847H34.0835H34.0822H34.0809H34.0797H34.0784H34.0771H34.0758H34.0746H34.0733H34.072H34.0708H34.0695H34.0682H34.067H34.0657H34.0644H34.0631H34.0619H34.0606H34.0593H34.0581H34.0568H34.0555H34.0542H34.053H34.0517H34.0504H34.0492H34.0479H34.0466H34.0454H34.0441H34.0428H34.0415H34.0403H34.039H34.0377H34.0365H34.0352H34.0339H34.0326H34.0314H34.0301H34.0288H34.0276H34.0263H34.025H34.0238H34.0225H34.0212H34.0199H34.0187H34.0174H34.0161H34.0149H34.0136H34.0123H34.011H34.0098H34.0085H34.0072H34.006H34.0047H34.0034H34.0021H34.0009H33.9996H33.9983H33.9971H33.9958H33.9945H33.9933H33.992H33.9907H33.9894H33.9882H33.9869H33.9856H33.9844H33.9831H33.9818H33.9805H33.9793H33.978H33.9767H33.9755H33.9742H33.9729H33.9717H33.9704H33.9691H33.9678H33.9666H33.9653H33.964H33.9628H33.9615H33.9602H33.9589H33.9577H33.9564H33.9551H33.9539H33.9526H33.9513H33.95H33.9488H33.9475H33.9462H33.945H33.9437H33.9424H33.9412H33.9399H33.9386H33.9373H33.9361H33.9348H33.9335H33.9323H33.931H33.9297H33.9284H33.9272H33.9259H33.9246H33.9234H33.9221H33.9208H33.9196H33.9183H33.917H33.9157H33.9145H33.9132H33.9119H33.9107H33.9094H33.9081H33.9068H33.9056H33.9043H33.903H33.9018H33.9005H33.8992H33.8979H33.8967H33.8954H33.8941H33.8929H33.8916H33.8903H33.8891H33.8878H33.8865H33.8852H33.884H33.8827H33.8814H33.8802H33.8789H33.8776H33.8763H33.8751H33.8738H33.8725H33.8713H33.87H33.8687H33.8675H33.8662H33.8649H33.8636H33.8624H33.8611H33.8598H33.8586H33.8573H33.856H33.8547H33.8535H33.8522H33.8509H33.8497H33.8484H33.8471H33.8334L33.8334 124.083C33.1253 124.044 32.5825 123.438 32.6216 122.73L35.8277 36.2983ZM35.8277 36.2983L35.8277 67.9437L35.8277 67.9443C35.8457 76.495 39.3945 84.6588 45.6348 90.5047L45.6352 90.5051L64.6472 108.247L64.6474 108.247C67.0252 110.459 70.1518 111.689 73.3993 111.691H73.3994H77.2408H77.2411V111.441C80.4507 111.445 83.5413 110.226 85.8848 108.033L97.5624 97.2148V97.5556M35.8277 36.2983L86.0549 108.216L86.0546 108.216L85.8851 108.033L86.0556 108.216L97.5624 97.5556M97.5624 97.5556L97.8124 97.324L105.94 124.918L105.941 125.168C105.94 125.168 105.939 125.168 105.938 125.168C105.521 125.169 105.131 124.968 104.889 124.629C100.109 117.918 97.5468 109.88 97.5624 101.64M97.5624 97.5556V101.64M97.5624 101.64L97.8124 101.641H97.5624V101.64ZM89.184 17.3554C89.4391 17.55 89.7423 17.7811 90.086 18.0431C94.1285 21.125 103.781 28.4838 106.795 30.9097L106.796 30.9106C108.817 32.5191 110.672 34.3265 112.331 36.3056C112.315 36.3738 112.304 36.4434 112.299 36.5136L112.299 36.5213V36.5291V67.9541C112.299 68.6624 112.873 69.2368 113.582 69.2368C114.29 69.2368 114.864 68.6624 114.864 67.9541V39.7109C122.713 51.5896 123.695 66.7624 117.395 79.5752L117.394 79.5774C117.091 80.2096 117.351 80.9679 117.978 81.2805C118.154 81.3772 118.352 81.4263 118.553 81.4226C118.553 81.4226 118.553 81.4226 118.554 81.4226L118.549 81.1726L89.184 17.3554ZM89.184 17.3554C82.8833 23.8682 74.159 28.1403 63.2034 30.1961C63.2027 30.1962 63.2019 30.1964 63.2012 30.1965L40.4243 34.8944L40.4228 34.8947C39.7192 35.0354 39.0225 35.2197 38.3312 35.4244L38.3312 67.9536L38.3312 67.9541M89.184 17.3554L38.3312 67.9541M38.3312 67.9541C38.3474 75.7962 41.6037 83.283 47.3292 88.6421L38.3312 67.9541ZM99.7229 95.1553L99.8935 95.338L100.031 95.2098C100.004 95.1455 99.9723 95.0832 99.9354 95.0237L99.7229 95.1553ZM103.301 88.6422C103.301 88.6423 103.301 88.6424 103.301 88.6425L103.472 88.8249L103.301 88.6422ZM106.675 124.934C106.676 124.934 106.676 124.933 106.677 124.933L106.528 124.732L106.673 124.936C106.674 124.935 106.674 124.935 106.675 124.934Z" fill="black" stroke="black" stroke-width="0.5"/>
<path d="M17.4456 38.0346L17.4457 38.0346L17.4437 38.0244C15.5097 28.0401 17.8995 17.7041 24.0195 9.5822C24.2013 9.35552 24.5316 9.31617 24.7615 9.49431C24.9909 9.67594 25.0308 10.0083 24.851 10.2391L24.8509 10.239L24.8457 10.246C18.9123 18.1405 16.6116 28.184 18.517 37.874C18.5618 38.1492 18.3871 38.4103 18.1203 38.4766H17.9855V38.4766L17.9781 38.4767C17.716 38.4805 17.49 38.2929 17.4456 38.0346ZM18.5081 37.7795V37.7905C18.5079 37.7807 18.5081 37.7763 18.5081 37.7795Z" fill="black" stroke="black"/>
<path d="M24.6084 30.4997C24.6071 30.4992 24.606 30.4987 24.6048 30.4982C24.0776 30.2808 23.4737 30.532 23.2563 31.0592C23.2511 31.0718 23.2462 31.0845 23.2416 31.0971C22.2169 33.549 21.4452 36.0992 20.9387 38.7081C20.8313 39.2668 21.1961 39.8071 21.7545 39.9164C21.8196 39.9264 21.8857 39.9264 21.9507 39.9164C22.4524 39.9254 22.8882 39.5725 22.9834 39.0799C23.4647 36.6029 24.1948 34.1813 25.1624 31.851C25.3824 31.3248 25.1345 30.7199 24.6084 30.4997Z" fill="black"/>
<path d="M76.0472 13.4734C75.6902 13.0285 75.0401 12.9575 74.5955 13.3148C74.5638 13.3404 74.5336 13.3678 74.5049 13.3969C70.5597 16.8828 65.7148 19.1906 60.5222 20.0578C59.9614 20.1619 59.5912 20.7007 59.6952 21.2617C59.6955 21.2633 59.6958 21.2648 59.696 21.2661C59.7913 21.7587 60.2271 22.1116 60.7287 22.1026L60.9043 22.0923C66.4728 21.1574 71.6658 18.6738 75.8887 14.9253C76.3333 14.568 76.4043 13.9179 76.0472 13.4734Z" fill="black"/>
<path d="M81.1761 6.33298C80.6799 6.0477 80.0466 6.21887 79.7613 6.71508C79.1757 7.74545 78.5275 8.73865 77.8198 9.68925C77.4777 10.1454 77.5701 10.7929 78.0263 11.135C78.2063 11.2654 78.4237 11.3343 78.646 11.3312C78.9746 11.3426 79.2891 11.197 79.4928 10.9388C80.2497 9.92109 80.9396 8.85509 81.5582 7.74778C81.8435 7.25156 81.6723 6.61801 81.1761 6.33298Z" fill="black"/>
<path d="M36.7258 116.831C36.7251 116.831 36.7245 116.831 36.7239 116.831C36.723 116.831 36.7223 116.831 36.7217 116.831C36.7212 116.831 36.7208 116.83 36.7204 116.83M36.7258 116.831L36.7195 116.83L36.7204 116.83M36.7258 116.831L36.734 116.832L36.734 116.832C36.7308 116.832 36.728 116.831 36.7258 116.831ZM36.7204 116.83L36.7139 116.902M36.7204 116.83L36.7139 116.902M36.7065 116.984L36.6978 117.079L36.7065 116.984ZM36.7065 116.984L36.7139 116.902M36.7065 116.984L36.7139 116.902M11.8433 93.8764L11.8443 93.8768L21.7479 98.1831C21.7479 98.1831 21.7479 98.1831 21.7479 98.1831C27.5347 100.701 31.7471 103.479 34.3904 106.485C37.0274 109.484 38.1014 112.708 37.6274 116.147L37.6272 116.148C37.5757 116.541 37.2399 116.833 36.8445 116.829H36.8424H36.7144C36.2914 116.765 35.9978 116.372 36.0572 115.947L36.0573 115.947C36.488 112.852 35.4156 109.928 32.9044 107.204C30.399 104.487 26.4548 101.96 21.1108 99.6351L11.1985 95.3191C11.1983 95.319 11.198 95.3189 11.1978 95.3188C3.75322 92.0201 1.15394 86.7943 0.270242 82.9956C0.173096 82.5741 0.435935 82.1537 0.857418 82.0564C1.27901 81.9591 1.69958 82.222 1.79685 82.6436L1.79697 82.6441C2.95383 87.6081 6.4351 91.4959 11.8433 93.8764Z" fill="black" stroke="black" stroke-width="0.5"/>
<path d="M104.071 69.245C103.751 68.7715 103.109 68.6468 102.635 68.9662C102.325 69.183 102.016 69.3999 101.716 69.6271C101.263 69.9725 101.175 70.6192 101.52 71.0729C101.717 71.329 102.023 71.4779 102.346 71.4756C102.569 71.4756 102.787 71.4031 102.966 71.2691C103.234 71.0625 103.513 70.8663 103.792 70.6804C104.265 70.3611 104.39 69.7185 104.071 69.245Z" fill="black"/>
<path d="M115.834 91.4582L118.673 88.3602L126.264 95.4651C126.683 95.8529 127.337 95.8276 127.725 95.4083C128.113 94.989 128.088 94.3348 127.668 93.9471L119.768 86.6562L114.15 80.3671L108.698 63.8439C108.55 63.4048 108.128 63.1174 107.665 63.1417C97.641 63.9766 89.9172 72.3327 89.8715 82.3912C89.8573 82.8773 90.1842 83.3074 90.6564 83.4239L107.448 87.5547L114.14 92.7181L126.264 103.985C126.454 104.163 126.705 104.263 126.966 104.264C127.536 104.262 127.997 103.798 127.995 103.227C127.994 102.943 127.876 102.672 127.668 102.477L115.834 91.4582ZM107.562 85.4583L96.2846 82.67C96.7325 79.4025 98.113 76.3331 100.26 73.8301C100.634 73.3966 100.586 72.7424 100.152 72.3688C99.7186 71.9953 99.0644 72.0438 98.6908 72.4773C96.3378 75.2276 94.8063 78.5844 94.2708 82.164L91.9576 81.596C92.3733 73.2327 98.7032 66.3598 107.004 65.2587L112.075 80.6046L110.928 81.8335L109.059 76.1743C108.879 75.6324 108.295 75.3389 107.753 75.5186C107.211 75.6983 106.917 76.283 107.097 76.8249L109.328 83.5581L107.562 85.4583ZM109.441 86.4806L113.241 82.3499L117.269 86.8524L114.223 90.1674L109.441 86.4806Z" fill="black"/>
</g>
<defs>
<clipPath id="clip0_90_646">
<rect width="128" height="128" fill="white"/>
</clipPath>
</defs>
</svg>
