<svg width="128" height="128" viewBox="0 0 128 128" fill="none" xmlns="http://www.w3.org/2000/svg">
<g clip-path="url(#clip0_90_738)">
<path d="M105.179 74.3668C104.867 71.883 103.475 70.8213 102.363 70.368C100.663 69.675 97.5035 69.3438 89.595 74.015C90.3143 71.0348 90.031 67.8268 88.646 64.9465C91.3723 61.5433 94.4818 56.8648 94.0475 53.3913C93.7333 50.8775 92.3293 49.806 91.2063 49.3498C84.8005 46.7453 70.2507 58.4345 64.8382 62.7613C65.0157 60.8885 64.7673 58.968 64.0608 57.1545C66.719 53.9018 69.9627 49.2033 69.5297 45.7385C69.211 43.188 67.6722 42.2013 66.7832 41.8398C63.1615 40.3673 57.2888 43.607 53.187 46.172C47.0045 50.0378 47.1645 50.2018 4.52325 84.418C1.64875 86.725 0 90.1623 0 93.848C0 97.8933 0 116.458 0 120.568C0 124.666 3.33425 128 7.4325 128H11.45C12.4857 128 13.325 127.161 13.325 126.125C13.325 125.089 12.4857 124.25 11.45 124.25H7.4325C5.40225 124.25 3.75025 122.598 3.75025 120.568V116.591L56.073 74.6055C57.6815 83.643 67.7925 84.0695 73.5798 79.827C77.2113 77.1615 82.492 71.9448 85.876 68.187C86.9042 71.8903 85.6823 75.9873 82.5553 78.4963C82.5215 78.5233 74.7435 84.764 25.5215 124.25H20.2005C19.1648 124.25 18.3255 125.089 18.3255 126.125C18.3255 127.161 19.1648 128 20.2005 128C28.8743 128 51.261 128 59.9342 128C63.4027 128 66.803 126.805 69.5082 124.634L82.6637 114.077C83.4712 113.429 83.6007 112.249 82.9525 111.441C82.3042 110.633 81.1243 110.504 80.3163 111.152L67.161 121.709C65.1188 123.347 62.552 124.25 59.934 124.25H31.5287L67.5383 95.3548C67.868 97.1445 68.472 98.497 69.148 99.4568C71.9683 103.471 78.572 103.985 83.3307 101.429C86.2032 99.8843 91.614 94.6513 93.8747 92.3615C94.9317 96.1895 93.6595 100.445 90.4482 103.022L87.1413 105.676C86.3338 106.324 86.2045 107.504 86.8525 108.312C87.5005 109.119 88.6805 109.249 89.4887 108.601L92.7955 105.947C97.7658 101.959 99.3395 95.03 96.7495 89.331C99.0175 86.8368 105.806 79.3543 105.179 74.3668ZM55.2015 49.3355C62.729 44.633 64.994 45.1603 65.3712 45.3143C65.474 45.356 65.7145 45.4538 65.8083 46.204C66.4075 50.9928 51.591 65.3695 47.544 68.047C44.083 70.282 39.6092 69.7065 38.16 67.7385C37.103 66.3043 37.0842 64.182 36.9955 63.17C44.8957 56.8433 49.2847 53.0315 55.2015 49.3355ZM56.5527 69.41C53.4122 71.9255 6.73875 109.308 3.75025 111.702V93.848C3.75025 91.3053 4.8875 88.9348 6.8705 87.3433L33.5122 65.9653C34.2085 69.6113 36.0133 71.5208 38.6673 72.5495C41.141 73.5083 44.212 73.5765 47.129 72.4583C51.1713 70.9078 58.187 63.728 61.0848 60.5655C61.7955 66.3908 56.9627 68.9073 56.5527 69.41ZM71.3897 76.7823C67.581 79.5888 62.1833 79.0805 60.6043 76.408C59.8508 75.1335 59.5895 73.2688 59.576 71.7945C67.642 65.304 72.659 61.0035 78.9165 57.0943C86.94 52.0818 89.3853 52.658 89.7945 52.824C89.9323 52.88 90.2187 52.9968 90.3262 53.8563C90.9732 59.032 75.6902 73.6215 71.3897 76.7823ZM82.2268 97.7265C79.1175 99.7258 73.8295 99.9498 72.0723 97.0778C71.272 95.759 71.0545 93.804 71.0332 92.55C81.1512 84.4668 84.207 81.7543 90.184 78.042C98.1295 73.107 100.544 73.676 100.948 73.8408C101.08 73.8945 101.355 74.0065 101.459 74.8345C102.107 79.9978 86.1788 95.1665 82.2268 97.7265Z" fill="black"/>
<path d="M126.125 10.113C127.161 10.113 128 9.27375 128 8.238V5.03875C128 2.2605 125.74 0 122.961 0H105.557C102.779 0 100.519 2.2605 100.519 5.03875V16.9492C100.519 19.463 102.207 21.6997 104.624 22.389L108.562 23.5117V39.033C108.562 40.1718 108.914 41.2295 109.515 42.1037C109.259 46.504 107.901 55.8047 101.225 61.377C99.406 62.895 99.4285 65.708 101.264 67.2207C104.49 69.597 105.52 71.512 108.2 71.512C110.016 71.512 111.69 70.5112 112.523 68.853C114.527 64.8595 117.889 56.174 118.174 42.5035C118.958 41.5615 119.43 40.3513 119.43 39.033V26.611C120.301 26.674 123.117 28.4563 125.94 26.3255C127.249 25.3378 128 23.8303 128 22.1903V16.9885C128 15.953 127.161 15.1135 126.125 15.1135C125.09 15.1135 124.25 15.9528 124.25 16.9885V22.1903C124.25 22.6433 124.043 23.0595 123.682 23.332C122.728 24.0523 122.059 23.297 118.07 22.323C115.639 21.6297 108.139 19.4912 105.653 18.7822C104.838 18.55 104.269 17.7962 104.269 16.9492V5.03875C104.269 4.34025 104.859 3.75025 105.558 3.75025H122.962C123.66 3.75025 124.25 4.34025 124.25 5.03875V8.238C124.25 9.27375 125.089 10.113 126.125 10.113ZM109.171 67.1705C108.861 67.7868 108.054 67.9552 107.516 67.5115L103.648 64.326C103.613 64.297 103.626 64.2572 103.628 64.256C109.432 59.4112 112.268 51.9083 113.086 44.3925C113.504 44.4623 113.947 44.483 114.36 44.4552C113.828 56.2133 110.934 63.6588 109.171 67.1705ZM112.311 24.5812L115.68 25.5417V39.033C115.68 39.54 115.453 39.9945 115.098 40.3032C113.98 41.254 112.311 40.4535 112.311 39.033V24.5812Z" fill="black"/>
</g>
<defs>
<clipPath id="clip0_90_738">
<rect width="128" height="128" fill="white"/>
</clipPath>
</defs>
</svg>
