<svg width="24" height="20" viewBox="0 0 24 20" fill="none" xmlns="http://www.w3.org/2000/svg">
<path d="M15.0251 3.96484C15.0251 5.67372 13.638 7.05859 11.9276 7.05859C10.2191 7.05859 8.83423 5.67334 8.83423 3.96484C8.83423 2.25634 10.2191 0.871094 11.9276 0.871094C13.638 0.871094 15.0251 2.25634 15.0251 3.96484Z" fill="#D0606F"/>
<path d="M13.2075 -1.25172H12.4065V-0.451467H11.4442V-1.25172H10.6432V-2.21359H11.4442V-3.01722H12.4065V-2.21359H13.2075V-1.25172ZM7.86223 12.6192H8.6546L7.52285 16.4982H16.3657L15.2392 12.6192H16.0324L17.166 16.4982H19.7681L17.9921 10.6212C17.7146 9.65103 16.4981 7.94291 14.3989 7.89116L9.5726 7.88703C7.42573 7.89753 6.18373 9.63903 5.90285 10.6208L4.09235 16.4978H6.73123L7.86223 12.6192ZM0.355103 17.7349H23.5039V19.9373H0.355103V17.7349Z" fill="#D0606F"/>
</svg>
